<svg xmlns="http://www.w3.org/2000/svg" fill="none" viewBox="0 0 464 465" height="465" width="464">
<path fill="#224229" d="M459.576 112.84L235.576 0.839823C234.466 0.284955 233.241 -0.00390625 232 -0.00390625C230.759 -0.00390625 229.535 0.284955 228.424 0.839823L4.42412 112.84C3.09426 113.504 1.97587 114.526 1.19443 115.791C0.412998 117.056 -0.000573537 118.513 0.000119228 120V344C-0.00803299 345.493 0.402023 346.959 1.18388 348.232C1.96573 349.504 3.08815 350.532 4.42412 351.2L228.424 463.2C229.535 463.755 230.759 464.044 232 464.044C233.241 464.044 234.466 463.755 235.576 463.2L459.576 351.2C460.912 350.532 462.035 349.504 462.816 348.232C463.598 346.959 464.008 345.493 464 344V120C464.001 118.513 463.587 117.056 462.806 115.791C462.024 114.526 460.906 113.504 459.576 112.84ZM232 223.056L169.464 191.784L369.352 85.5998L438.152 120L232 223.056ZM105.464 159.784L305.352 53.5998L351.752 76.7998L151.888 183L105.464 159.784ZM96.0001 172.944L144 196.944V260.688L125.656 242.344C124.156 240.843 122.122 240 120 240H96.0001V172.944ZM232 16.9438L287.776 44.7998L87.8881 151L25.8881 120L232 16.9438ZM16.0001 132.944L80.0001 164.944V248C80.0001 250.122 80.843 252.156 82.3433 253.657C83.8436 255.157 85.8784 256 88.0001 256H116.688L146.344 285.656C147.463 286.774 148.888 287.536 150.44 287.844C151.991 288.153 153.6 287.995 155.061 287.389C156.523 286.784 157.772 285.759 158.651 284.443C159.53 283.128 160 281.582 160 280V204.944L224 236.944V443.056L16.0001 339.056V132.944ZM240 443.056V236.944L448 132.944V339.056L240 443.056Z"></path>
</svg>
