<svg xmlns="http://www.w3.org/2000/svg" fill="none" viewBox="0 0 512 512" height="512" width="512">
<g clip-path="url(#clip0_669_2)">
<path fill="#224229" d="M340.32 480C345.858 480 351.271 478.358 355.876 475.281C360.48 472.204 364.069 467.831 366.189 462.715C368.308 457.599 368.862 451.969 367.782 446.537C366.702 441.106 364.035 436.117 360.119 432.201C356.203 428.285 351.214 425.618 345.782 424.538C340.351 423.458 334.721 424.012 329.605 426.131C324.488 428.251 320.115 431.839 317.039 436.444C313.962 441.049 312.32 446.462 312.32 452C312.32 459.426 315.27 466.548 320.521 471.799C325.772 477.05 332.894 480 340.32 480ZM340.32 440C342.693 440 345.013 440.704 346.987 442.022C348.96 443.341 350.498 445.215 351.406 447.408C352.315 449.601 352.552 452.013 352.089 454.341C351.626 456.669 350.483 458.807 348.805 460.485C347.127 462.164 344.989 463.306 342.661 463.769C340.333 464.232 337.92 463.995 335.728 463.087C333.535 462.178 331.661 460.64 330.342 458.667C329.024 456.693 328.32 454.373 328.32 452C328.32 448.817 329.584 445.765 331.835 443.515C334.085 441.264 337.137 440 340.32 440Z"></path>
<path fill="#224229" d="M506.752 168.392C460.365 155.875 411.233 158.089 366.16 174.728C383.257 138.167 407.46 105.375 437.36 78.2639C438.699 77.2072 439.665 75.7503 440.118 74.1056C440.57 72.461 440.485 70.7148 439.875 69.122C439.265 67.5291 438.161 66.173 436.726 65.2515C435.291 64.3301 433.598 63.8915 431.896 63.9999C388.86 68.802 348.062 85.6844 314.216 112.696C322.724 76.9755 337.787 43.1441 358.64 12.9199C359.617 11.655 360.193 10.1264 360.294 8.53117C360.394 6.93591 360.014 5.34714 359.203 3.96972C358.392 2.5923 357.188 1.48938 355.744 0.803193C354.3 0.117002 352.684 -0.121002 351.104 0.119869C348.8 0.471869 296.456 9.22387 256.32 67.7679C216.184 9.22387 163.864 0.471869 161.536 0.111869C159.956 -0.129002 158.34 0.109003 156.896 0.795193C155.452 1.48138 154.247 2.5843 153.437 3.96172C152.626 5.33914 152.246 6.92791 152.346 8.52317C152.447 10.1184 153.023 11.647 154 12.9119C174.848 43.1476 189.903 76.99 198.4 112.72C164.564 85.7043 123.774 68.8138 80.744 63.9999C79.0524 63.9088 77.3756 64.357 75.9551 65.2799C74.5346 66.2029 73.4437 67.553 72.8396 69.1356C72.2356 70.7183 72.1495 72.4518 72.5938 74.0865C73.0381 75.7213 73.9899 77.1727 75.312 78.2319C105.213 105.345 129.417 138.14 146.512 174.704C101.426 158.065 52.2816 155.862 5.88798 168.4C4.268 168.917 2.85479 169.936 1.85342 171.31C0.852049 172.685 0.3146 174.342 0.319058 176.043C0.323517 177.743 0.86965 179.398 1.87821 180.767C2.88678 182.136 4.30531 183.148 5.92798 183.656C7.11998 184 120.864 220.624 149.6 304H104.32C97.9658 304.036 91.882 306.576 87.3889 311.069C82.8957 315.562 80.3557 321.646 80.32 328V352C80.32 358.365 82.8485 364.47 87.3494 368.97C91.8503 373.471 97.9548 376 104.32 376H105.208L117.6 481.12C118.608 489.623 122.698 497.462 129.096 503.153C135.495 508.843 143.757 511.991 152.32 512H360.32C368.891 511.998 377.163 508.852 383.568 503.157C389.974 497.463 394.067 489.616 395.072 481.104L407.432 376H408.32C414.685 376 420.79 373.471 425.291 368.97C429.791 364.47 432.32 358.365 432.32 352V328C432.32 321.635 429.791 315.53 425.291 311.029C420.79 306.528 414.685 304 408.32 304H363.08C391.776 220.624 505.52 184 506.712 183.656C508.338 183.15 509.759 182.138 510.77 180.768C511.782 179.398 512.329 177.741 512.334 176.039C512.338 174.336 511.799 172.676 510.795 171.301C509.791 169.926 508.375 168.907 506.752 168.392ZM344.144 184.48C328.298 192.624 313.544 202.736 300.232 214.576C308.267 193.213 320.466 173.658 336.12 157.048C337.688 155.618 338.624 153.623 338.721 151.504C338.819 149.384 338.07 147.312 336.64 145.744C335.21 144.176 333.216 143.24 331.096 143.143C328.976 143.045 326.904 143.794 325.336 145.224C324.096 146.352 298.136 170.44 280.76 220.84C276.248 210.562 271.187 200.535 265.6 190.8C272.75 179.152 280.847 168.112 289.808 157.792C295.188 151.518 300.892 145.528 306.896 139.848C335.331 113.058 370.129 93.9632 408 84.3679C381.147 113.842 359.548 147.703 344.144 184.48ZM333.232 22.6319C314.149 55.947 300.907 92.282 294.08 130.064C291.92 132.152 289.784 134.264 287.68 136.464C282.464 117.78 275.036 99.7857 265.552 82.8639C281.56 56.4528 305.141 35.4666 333.232 22.6319ZM249.472 86.6319C261.112 106.575 269.703 128.147 274.96 150.632C270.856 155.496 266.832 160.544 262.96 165.896C261.279 144.791 255.153 124.281 244.984 105.712C243.847 103.92 242.044 102.653 239.973 102.191C237.902 101.728 235.732 102.107 233.94 103.244C232.148 104.381 230.882 106.184 230.419 108.255C229.956 110.326 230.335 112.496 231.472 114.288C239.246 128.965 244.236 144.954 246.192 161.448C237.835 150.272 228.594 139.786 218.56 130.088C211.727 92.2931 198.468 55.9486 179.36 22.6319C208.852 36.0984 233.375 58.4806 249.472 86.6239V86.6319ZM205.728 139.856C222.774 156.019 237.491 174.473 249.456 194.688C258.662 210.262 266.474 226.619 272.8 243.568C266.924 250.831 261.423 258.39 256.32 266.216C251.12 258.216 245.744 250.792 240.248 243.952C223.68 179.568 188.856 146.648 187.368 145.272C186.601 144.538 185.696 143.964 184.705 143.584C183.714 143.204 182.657 143.024 181.596 143.056C180.536 143.088 179.492 143.331 178.526 143.771C177.559 144.21 176.69 144.837 175.969 145.616C175.248 146.395 174.689 147.309 174.324 148.306C173.96 149.303 173.797 150.362 173.846 151.422C173.895 152.483 174.155 153.522 174.61 154.481C175.065 155.44 175.706 156.299 176.496 157.008C192.69 174.102 205.454 194.144 214.096 216.048C200.357 203.582 185.042 192.972 168.544 184.488C153.128 147.685 131.51 113.802 104.632 84.3119C142.514 93.904 177.314 113.029 205.728 139.856ZM36.8 178.456C78.4427 172.637 120.877 179.238 158.784 197.432C185.162 210.737 208.357 229.579 226.784 252.672C235.126 263.012 242.706 273.945 249.464 285.384C252.968 291.288 256.304 297.584 259.544 304.016H223.632C215.849 280.617 202.543 259.438 184.84 242.272C184.118 241.443 183.232 240.772 182.239 240.301C181.246 239.83 180.166 239.568 179.068 239.533C177.969 239.497 176.875 239.688 175.853 240.095C174.832 240.501 173.905 241.113 173.13 241.894C172.356 242.674 171.751 243.606 171.353 244.63C170.954 245.655 170.772 246.751 170.816 247.849C170.86 248.947 171.13 250.025 171.609 251.014C172.088 252.004 172.766 252.884 173.6 253.6C188.184 267.784 199.491 284.986 206.728 304H166.24C145.6 235.096 75.56 195.504 36.8 178.456ZM379.2 479.256C378.651 483.875 376.425 488.132 372.945 491.219C369.464 494.306 364.972 496.007 360.32 496H152.32C147.664 495.999 143.17 494.288 139.693 491.19C136.217 488.093 134 483.825 133.464 479.2L121.32 376H391.328L379.2 479.256ZM416.32 328V352C416.32 354.122 415.477 356.156 413.977 357.657C412.477 359.157 410.442 360 408.32 360H104.32C102.198 360 100.163 359.157 98.6631 357.657C97.1628 356.156 96.32 354.122 96.32 352V328C96.3176 326.935 96.5336 325.881 96.9547 324.902C97.3757 323.924 97.9929 323.042 98.768 322.312C99.4886 321.571 100.352 320.983 101.307 320.586C102.261 320.189 103.286 319.989 104.32 320H408.32C410.442 320 412.477 320.843 413.977 322.343C415.477 323.843 416.32 325.878 416.32 328ZM346.4 304H305.912C313.161 284.982 324.481 267.78 339.08 253.6C339.846 252.864 340.458 251.983 340.879 251.008C341.301 250.033 341.525 248.984 341.537 247.922C341.549 246.86 341.349 245.806 340.95 244.822C340.55 243.838 339.959 242.943 339.21 242.19C338.461 241.437 337.57 240.841 336.588 240.436C335.606 240.031 334.553 239.825 333.491 239.831C332.429 239.837 331.379 240.055 330.402 240.471C329.425 240.887 328.54 241.494 327.8 242.256C310.097 259.422 296.791 280.601 289.008 304H277.32C273.619 296.192 269.709 288.693 265.592 281.504C272.299 270.493 279.811 259.993 288.064 250.088C306.085 228.118 328.511 210.17 353.896 197.4C391.789 179.207 434.214 172.619 475.84 178.464C437.08 195.504 367.04 235.096 346.4 304Z"></path>
<path fill="#224229" d="M135.136 206.648C133.202 205.774 131 205.704 129.014 206.453C127.029 207.202 125.422 208.71 124.548 210.644C123.674 212.578 123.604 214.78 124.353 216.765C125.103 218.751 126.61 220.358 128.544 221.232C138.315 226.043 147.58 231.822 156.2 238.48C157.037 239.115 157.991 239.579 159.008 239.845C160.025 240.111 161.084 240.175 162.125 240.032C163.166 239.889 164.169 239.542 165.076 239.012C165.983 238.481 166.777 237.777 167.412 236.94C168.047 236.103 168.511 235.148 168.777 234.132C169.044 233.115 169.107 232.056 168.964 231.015C168.821 229.974 168.474 228.971 167.944 228.064C167.413 227.157 166.709 226.363 165.872 225.728C156.308 218.33 146.009 211.937 135.136 206.648Z"></path>
<path fill="#224229" d="M377.504 206.648C366.631 211.937 356.332 218.33 346.768 225.728C345.077 227.01 343.965 228.912 343.676 231.015C343.387 233.118 343.945 235.249 345.228 236.94C346.511 238.631 348.412 239.743 350.515 240.032C352.618 240.321 354.749 239.762 356.44 238.48C365.06 231.822 374.325 226.043 384.096 221.232C386.03 220.358 387.537 218.751 388.287 216.765C389.036 214.78 388.966 212.578 388.092 210.644C387.218 208.71 385.611 207.202 383.626 206.453C381.64 205.704 379.438 205.774 377.504 206.648Z"></path>
</g>
<defs>
<clipPath id="clip0_669_2">
<rect fill="white" height="512" width="512"></rect>
</clipPath>
</defs>
</svg>
