<svg xmlns="http://www.w3.org/2000/svg" fill="none" viewBox="0 0 512 512" height="512" width="512">
<path fill="#224229" d="M510.189 397.665C506.979 387.124 499.854 378.463 490.126 373.281L484.087 370.062C480.432 368.113 475.889 369.497 473.941 373.153C471.993 376.808 473.377 381.35 477.032 383.299L483.072 386.519C489.263 389.818 493.798 395.329 495.84 402.035C497.882 408.741 497.19 415.842 493.89 422.033L461.343 483.101C454.524 495.878 438.583 500.729 425.811 493.914L382.626 470.884C382.78 470.541 382.942 470.203 383.086 469.855L388.442 456.991L432.859 480.674C434.515 481.561 436.324 482.011 438.151 482.011C439.253 482.011 440.361 481.848 441.445 481.517C444.329 480.639 446.695 478.689 448.098 476.042L480.651 414.993C482.074 412.335 482.372 409.283 481.49 406.399C480.613 403.534 478.674 401.175 476.018 399.754L423.857 371.941L429.646 358.037L448.793 368.245C449.917 368.845 451.124 369.129 452.315 369.129C454.996 369.129 457.59 367.687 458.939 365.155C460.888 361.5 459.504 356.957 455.849 355.008L434.238 343.486C436.304 328.24 429.357 312.941 415.876 304.54L417.445 301.597C423.352 290.518 419.144 276.699 408.066 270.792L395.559 264.123C396.915 262.835 398.06 261.351 398.944 259.695C401.675 254.572 401.683 248.3 398.965 242.488C396.549 237.321 392.184 232.857 386.677 229.92C381.169 226.983 375.033 225.85 369.394 226.72C363.053 227.702 357.851 231.204 355.119 236.326C354.236 237.983 353.642 239.761 353.328 241.604L337.951 233.405C326.874 227.498 313.054 231.706 307.146 242.785L305.316 246.22C288.627 240.891 270.159 247.082 260.142 262.207L234.811 300.442L230.098 291.249C228.209 287.564 223.689 286.109 220.003 287.998C216.317 289.887 214.861 294.407 216.751 298.093L225.309 314.786L195.476 359.81L140.463 178.857L155.855 179.313L202.153 269.621C203.481 272.212 206.108 273.701 208.833 273.701C209.984 273.701 211.153 273.434 212.248 272.873C215.934 270.983 217.39 266.463 215.5 262.777L167.201 168.566C167.826 166.048 168.3 162.986 168.214 159.597C168.005 151.365 164.504 139.822 149.018 131.581C137.13 125.255 115.792 120.172 97.0311 123.963C87.4352 125.901 85.0952 131.509 84.5552 134.679C83.1972 142.647 89.6522 151.302 106.137 163.617C113.035 168.771 119.959 173.233 123.806 175.634L185.45 378.397C180.45 396.155 188.557 415.537 205.037 424.321L327.611 489.681C333.425 492.784 339.876 494.357 346.351 494.357C350.868 494.357 355.397 493.591 359.729 492.043C365.077 490.132 369.899 487.105 373.917 483.242L418.75 507.151C424.916 510.441 431.55 512 438.095 512C452.853 511.999 467.154 504.069 474.577 490.162L507.126 429.091C512.311 419.363 513.399 408.203 510.189 397.665ZM100.576 138.551C114.932 135.842 132.197 139.618 141.973 144.821C153.501 150.956 154.004 159.164 152.908 164.217L132.887 163.624C118.259 154.741 104.721 144.155 100.576 138.551ZM465.659 411.228L436.624 465.68L394.235 443.079L418.065 385.85L465.659 411.228ZM368.356 243.382C369.05 242.08 370.919 241.661 371.69 241.542C372.167 241.468 372.662 241.432 373.171 241.432C375.236 241.432 377.514 242.033 379.62 243.156C382.244 244.555 384.344 246.628 385.379 248.842C385.71 249.549 386.404 251.334 385.71 252.635V252.636C385.016 253.938 383.147 254.357 382.376 254.476C379.964 254.853 377.071 254.263 374.446 252.863C371.822 251.464 369.722 249.391 368.687 247.177C368.356 246.469 367.662 244.683 368.356 243.382ZM369.239 464.088C368.438 466.012 367.42 467.792 366.218 469.411C366.146 469.509 366.072 469.604 366.004 469.706C363.145 473.442 359.269 476.276 354.684 477.914C348.02 480.295 340.914 479.773 334.672 476.442L212.094 411.081C201.341 405.35 196.298 392.387 200.365 380.928C200.366 380.925 200.367 380.921 200.368 380.917C200.369 380.915 200.37 380.914 200.37 380.912C201.038 379.016 201.949 377.194 203.079 375.491L240.235 319.414C240.235 319.414 240.238 319.411 240.239 319.409L272.648 270.488C279.746 259.771 293.653 256.247 304.995 262.294L325.07 272.999C328.725 274.945 333.268 273.564 335.217 269.909C337.166 266.255 335.782 261.711 332.128 259.762L318.863 252.689L320.383 249.838C322.398 246.059 327.115 244.621 330.895 246.638L367.385 266.096L367.387 266.097L367.39 266.098L401.01 284.025C404.79 286.041 406.226 290.756 404.21 294.537L402.69 297.388L360.363 274.819C356.708 272.869 352.165 274.253 350.216 277.909C348.267 281.563 349.651 286.107 353.305 288.056L406.434 316.385C416.985 322.009 421.892 334.082 418.55 345.288C418.54 345.32 418.532 345.352 418.523 345.384C418.277 346.197 417.992 347.005 417.658 347.805L407.383 372.482C407.375 372.502 407.366 372.522 407.358 372.542L369.239 464.088Z"></path>
<path fill="#224229" d="M147.111 104.092C147.08 103.838 146.784 101.498 145.984 97.5891C145.153 93.5321 141.193 90.9241 137.132 91.7461C133.074 92.5791 130.458 96.5431 131.289 100.6C131.962 103.888 132.215 105.86 132.223 105.922C132.692 109.72 135.924 112.504 139.657 112.504C139.96 112.504 140.267 112.485 140.576 112.447C144.688 111.945 147.613 108.205 147.111 104.092Z"></path>
<path fill="#224229" d="M110.292 27.5528C107.823 25.0258 105.227 22.6098 102.575 20.3698C99.4082 17.6968 94.6772 18.0988 92.0062 21.2638C89.3342 24.4298 89.7342 29.1618 92.8992 31.8338C95.1862 33.7638 97.4282 35.8508 99.5622 38.0358C101.031 39.5398 102.978 40.2948 104.927 40.2948C106.817 40.2948 108.709 39.5848 110.168 38.1598C113.131 35.2648 113.186 30.5158 110.292 27.5528Z"></path>
<path fill="#224229" d="M135.337 64.9146C133.901 61.7406 132.353 58.6176 130.737 55.6326C128.765 51.9886 124.216 50.6336 120.572 52.6066C116.929 54.5786 115.575 59.1296 117.546 62.7716C118.993 65.4456 120.381 68.2476 121.671 71.1006C122.925 73.8716 125.653 75.5096 128.508 75.5096C129.542 75.5096 130.593 75.2946 131.596 74.8406C135.37 73.1326 137.044 68.6886 135.337 64.9146Z"></path>
<path fill="#224229" d="M72.3594 2.49367C70.3804 1.73067 68.3344 1.01167 66.2804 0.355668C62.3364 -0.900332 58.1154 1.27567 56.8564 5.22167C55.5984 9.16767 57.7764 13.3877 61.7234 14.6467C63.4974 15.2117 65.2614 15.8327 66.9664 16.4897C67.8534 16.8317 68.7654 16.9937 69.6624 16.9937C72.6724 16.9947 75.5124 15.1687 76.6604 12.1897C78.1504 8.32467 76.2244 3.98367 72.3594 2.49367Z"></path>
<path fill="#224229" d="M90.9083 107.048C90.7363 106.827 89.1383 104.81 86.1963 101.915C83.2423 99.0124 78.4953 99.0494 75.5903 102.002C72.6853 104.955 72.7243 109.703 75.6773 112.609C77.8723 114.768 79.0533 116.24 79.1073 116.306C80.5863 118.186 82.7853 119.168 85.0063 119.168C86.6223 119.169 88.2503 118.65 89.6213 117.576C92.8843 115.024 93.4603 110.311 90.9083 107.048Z"></path>
<path fill="#224229" d="M57.0625 82.8807C53.7805 81.5757 50.4005 80.4767 47.0165 79.6117C43.0035 78.5877 38.9195 81.0087 37.8935 85.0217C36.8685 89.0347 39.2905 93.1197 43.3035 94.1447C46.0685 94.8507 48.8335 95.7507 51.5225 96.8197C52.4315 97.1807 53.3685 97.3517 54.2905 97.3517C57.2735 97.3517 60.0945 95.5597 61.2625 92.6187C62.7915 88.7717 60.9115 84.4107 57.0625 82.8807Z"></path>
<path fill="#224229" d="M20.7689 84.4926C20.0629 80.4116 16.1839 77.6856 12.0999 78.3806C9.98293 78.7476 7.83293 79.1976 5.71193 79.7196C1.68993 80.7096 -0.768068 84.7726 0.220932 88.7946C1.06293 92.2156 4.12593 94.5046 7.49793 94.5046C8.09093 94.5046 8.69393 94.4336 9.29593 94.2856C11.0799 93.8466 12.8829 93.4686 14.6579 93.1616C18.7389 92.4546 21.4749 88.5736 20.7689 84.4926Z"></path>
<path fill="#224229" d="M118.304 103.299C118.24 103.027 117.638 100.523 116.077 96.567C114.557 92.714 110.202 90.821 106.349 92.342C102.496 93.862 100.604 98.217 102.124 102.071C103.245 104.913 103.683 106.653 103.705 106.74C104.524 110.183 107.598 112.506 110.994 112.506C111.558 112.506 112.132 112.442 112.705 112.308C116.739 111.367 119.245 107.332 118.304 103.299Z"></path>
<path fill="#224229" d="M58.6727 37.8989C55.5227 36.3319 52.2317 34.8359 48.8897 33.4559C45.0637 31.8729 40.6757 33.6939 39.0937 37.5209C37.5107 41.3489 39.3307 45.7359 43.1587 47.3179C46.1797 48.5679 49.1527 49.9179 51.9927 51.3299C53.0657 51.8639 54.2047 52.1169 55.3267 52.1169C58.0837 52.1169 60.7367 50.5909 62.0477 47.9549C63.8927 44.2449 62.3817 39.7419 58.6727 37.8989Z"></path>
<path fill="#224229" d="M96.3033 65.7127C93.8723 63.0667 91.2613 60.4817 88.5433 58.0277C85.4683 55.2507 80.7273 55.4937 77.9503 58.5677C75.1743 61.6427 75.4163 66.3867 78.4913 69.1617C80.8643 71.3057 83.1423 73.5607 85.2593 75.8637C86.7383 77.4727 88.7573 78.2887 90.7833 78.2887C92.5963 78.2887 94.4163 77.6347 95.8563 76.3107C98.9063 73.5067 99.1063 68.7627 96.3033 65.7127Z"></path>
<path fill="#224229" d="M14.8908 23.2596C12.9008 22.8566 10.8468 22.4706 8.78581 22.1126C4.70081 21.4086 0.821814 24.1386 0.113814 28.2206C-0.594186 32.3026 2.13981 36.1846 6.22081 36.8926C8.14481 37.2266 10.0598 37.5855 11.9128 37.9605C12.4148 38.0625 12.9158 38.1115 13.4098 38.1115C16.9048 38.1115 20.0318 35.6556 20.7528 32.0976C21.5748 28.0386 18.9498 24.0816 14.8908 23.2596Z"></path>
</svg>
