<svg xmlns="http://www.w3.org/2000/svg" fill="none" viewBox="0 0 512 512" height="512" width="512">
<path fill="#224229" d="M379.306 380.037C405.601 353.742 424.389 320.912 433.638 285.096C442.615 250.341 442.464 213.64 433.203 178.962C432.28 175.504 429.579 172.804 426.122 171.88C377.146 158.803 324.301 164.261 279.203 186.732C263.202 138.954 229.694 97.726 185.817 72.343C182.719 70.551 178.899 70.551 175.801 72.343C144.733 90.316 118.675 116.161 100.447 147.084C81.662 178.95 71.733 215.449 71.733 252.636C71.733 289.823 81.662 326.323 100.447 358.188C118.676 389.111 144.733 414.956 175.801 432.929C176.563 433.37 177.379 433.708 178.229 433.935C195.801 438.627 213.975 440.98 232.154 440.98C247.381 440.98 262.61 439.329 277.49 436.021C282.882 434.822 286.28 429.48 285.082 424.089C283.884 418.698 278.538 415.298 273.15 416.498C249.452 421.767 224.779 422.363 200.861 418.366L296.84 322.387H397.533C389.006 338.197 378.169 352.889 365.162 365.895C360.235 370.822 354.997 375.516 349.594 379.846C345.283 383.3 344.59 389.593 348.043 393.903C351.498 398.213 357.791 398.905 362.1 395.453C368.074 390.666 373.863 385.48 379.306 380.037ZM239.189 239.922C241.078 238.033 243.026 236.198 245 234.389V345.942L186.71 404.232C176.767 344.661 196.114 282.997 239.189 239.922ZM180.809 92.658C219.118 116.466 248.038 153.846 261.408 196.737C248.304 204.996 236.094 214.733 225.047 225.78C211.565 239.262 200.072 254.476 190.81 270.919V163.999C190.81 158.476 186.332 153.999 180.81 153.999C175.288 153.999 170.81 158.476 170.81 163.999V246.857L105.698 181.745C120.548 145.374 146.606 113.896 180.809 92.658ZM91.733 252.637C91.733 235.614 94.085 218.888 98.514 202.848L170.809 275.142V320.357C163.829 347.184 162.314 375.189 166.215 402.537C119.788 367.214 91.733 311.688 91.733 252.637ZM316.841 302.387L368.364 250.864C372.269 246.959 372.269 240.627 368.364 236.721C364.458 232.816 358.128 232.816 354.221 236.721L265 325.942V218.429C265 218.418 264.999 218.408 264.999 218.397C269.289 215.412 273.675 212.591 278.151 209.993C319.273 186.222 368.942 178.964 415.299 189.787C424.173 227.73 420.862 267.059 406.843 302.386H316.841V302.387Z"></path>
<path fill="#224229" d="M127.106 56.4377C128.896 56.4377 130.709 55.9567 132.344 54.9487C136.673 52.2807 141.149 49.7177 145.648 47.3337C150.527 44.7477 152.386 38.6947 149.8 33.8147C147.212 28.9357 141.162 27.0757 136.28 29.6627C131.4 32.2487 126.545 35.0287 121.847 37.9247C117.146 40.8227 115.684 46.9837 118.582 51.6847C120.475 54.7497 123.751 56.4377 127.106 56.4377Z"></path>
<path fill="#224229" d="M77.561 96.6588C80.207 96.6588 82.85 95.6148 84.816 93.5438C88.321 89.8518 91.995 86.2228 95.736 82.7608C99.789 79.0088 100.034 72.6818 96.282 68.6288C92.529 64.5748 86.202 64.3328 82.15 68.0828C78.094 71.8368 74.111 75.7708 70.31 79.7738C66.508 83.7798 66.672 90.1088 70.678 93.9118C72.612 95.7478 75.089 96.6588 77.561 96.6588Z"></path>
<path fill="#224229" d="M185.287 30.3156C186.237 30.3156 187.204 30.1796 188.161 29.8926C193.039 28.4316 198.027 27.1136 202.987 25.9756C208.371 24.7406 211.733 19.3756 210.499 13.9926C209.264 8.60962 203.895 5.24462 198.517 6.48162C193.132 7.71662 187.716 9.14762 182.421 10.7346C177.13 12.3196 174.127 17.8936 175.712 23.1836C177.01 27.5166 180.984 30.3156 185.287 30.3156Z"></path>
<path fill="#224229" d="M14.5811 207.451C15.3741 207.644 16.1681 207.736 16.9491 207.736C21.4561 207.736 25.5481 204.668 26.6591 200.094C27.8621 195.141 29.2431 190.169 30.7641 185.317C32.4161 180.047 29.4841 174.436 24.2141 172.783C18.9431 171.133 13.3321 174.063 11.6801 179.333C10.0291 184.6 8.52906 189.997 7.22306 195.373C5.92006 200.74 9.21506 206.148 14.5811 207.451Z"></path>
<path fill="#224229" d="M29.197 321.469C27.785 316.57 26.52 311.568 25.437 306.603C24.258 301.207 18.928 297.785 13.535 298.965C8.13897 300.142 4.71997 305.471 5.89597 310.867C7.07297 316.258 8.44597 321.688 9.97797 327.007C11.241 331.389 15.239 334.241 19.582 334.241C20.498 334.241 21.431 334.114 22.355 333.848C27.663 332.318 30.726 326.776 29.197 321.469Z"></path>
<path fill="#224229" d="M10.259 271.158C15.78 271.045 20.165 266.477 20.052 260.955C20.018 259.306 20.001 257.652 20 256C20 252.538 20.075 249.039 20.224 245.6C20.463 240.082 16.183 235.416 10.665 235.177C10.519 235.171 10.372 235.168 10.226 235.168C4.903 235.168 0.475 239.366 0.244 244.736C0.082 248.461 0 252.25 0 256.005C0.001 257.796 0.02 259.582 0.056 261.364C0.168 266.816 4.622 271.159 10.05 271.159C10.119 271.16 10.189 271.159 10.259 271.158Z"></path>
<path fill="#224229" d="M481.386 185.799C482.898 190.66 484.269 195.635 485.46 200.587C486.564 205.17 490.659 208.249 495.175 208.249C495.949 208.249 496.737 208.158 497.523 207.969C502.893 206.677 506.198 201.276 504.906 195.906C503.612 190.533 502.125 185.134 500.484 179.86C498.843 174.587 493.238 171.64 487.965 173.281C482.691 174.921 479.745 180.526 481.386 185.799Z"></path>
<path fill="#224229" d="M463.498 143.473C465.311 146.808 468.746 148.699 472.293 148.699C473.906 148.699 475.543 148.307 477.06 147.483C481.913 144.846 483.708 138.774 481.071 133.921C478.434 129.071 475.604 124.245 472.66 119.577C469.713 114.906 463.541 113.508 458.866 116.455C454.195 119.401 452.798 125.577 455.744 130.248C458.458 134.552 461.067 139.001 463.498 143.473Z"></path>
<path fill="#224229" d="M46.188 364.164C43.654 359.256 37.619 357.333 32.714 359.868C27.807 362.402 25.884 368.434 28.418 373.342C30.948 378.241 33.677 383.127 36.528 387.862C38.405 390.979 41.713 392.705 45.104 392.705C46.86 392.705 48.639 392.242 50.252 391.27C54.983 388.421 56.51 382.276 53.66 377.544C51.035 373.181 48.521 368.679 46.188 364.164Z"></path>
<path fill="#224229" d="M366.799 47.5703C371.292 49.9643 375.771 52.5403 380.11 55.2283C381.75 56.2443 383.569 56.7283 385.366 56.7283C388.714 56.7283 391.984 55.0473 393.877 51.9933C396.785 47.2983 395.337 41.1343 390.642 38.2263C385.936 35.3103 381.079 32.5163 376.203 29.9193C371.332 27.3223 365.272 29.1703 362.676 34.0433C360.077 38.9173 361.924 44.9733 366.799 47.5703Z"></path>
<path fill="#224229" d="M248.573 20.1143C253.667 19.9573 258.864 19.9623 263.927 20.1303C264.039 20.1333 264.152 20.1353 264.264 20.1353C269.634 20.1353 274.074 15.8733 274.252 10.4663C274.436 4.94627 270.108 0.323266 264.589 0.140266C259.103 -0.0407337 253.475 -0.0467337 247.957 0.123266C242.436 0.293266 238.1 4.90627 238.269 10.4263C238.44 15.9473 243.061 20.2803 248.573 20.1143Z"></path>
<path fill="#224229" d="M309.503 26.0878C314.457 27.2358 319.444 28.5648 324.325 30.0378C325.288 30.3288 326.261 30.4668 327.218 30.4668C331.513 30.4668 335.483 27.6768 336.787 23.3538C338.383 18.0658 335.391 12.4868 330.102 10.8908C324.806 9.29282 319.395 7.85082 314.018 6.60482C308.641 5.35582 303.265 8.70882 302.018 14.0888C300.772 19.4688 304.123 24.8408 309.503 26.0878Z"></path>
<path fill="#224229" d="M258.584 491.987C258.55 491.987 258.515 491.987 258.48 491.987C253.385 492.038 248.209 491.928 243.132 491.655C237.653 491.345 232.906 495.588 232.61 501.103C232.313 506.618 236.544 511.329 242.058 511.625C246.667 511.874 251.359 511.999 256 511.999C256.896 511.999 257.791 511.995 258.685 511.985C264.207 511.928 268.638 507.406 268.582 501.883C268.525 496.397 264.06 491.987 258.584 491.987Z"></path>
<path fill="#224229" d="M511.779 245.285C511.552 239.767 506.89 235.48 501.377 235.704C495.858 235.931 491.569 240.589 491.797 246.107C491.932 249.388 492 252.716 492 256.001C492 261.109 491.835 266.271 491.51 271.342C491.156 276.854 495.338 281.608 500.85 281.962C501.068 281.976 501.284 281.983 501.499 281.983C506.729 281.983 511.129 277.916 511.469 272.623C511.822 267.127 512 261.535 512 256.001C512 252.443 511.926 248.838 511.779 245.285Z"></path>
<path fill="#224229" d="M474.489 369.594C469.697 366.844 463.586 368.5 460.839 373.29C458.301 377.711 455.586 382.105 452.767 386.351C449.712 390.952 450.965 397.158 455.567 400.213C457.268 401.342 459.189 401.883 461.089 401.883C464.326 401.883 467.504 400.313 469.429 397.413C472.487 392.808 475.433 388.041 478.185 383.245C480.934 378.454 479.279 372.343 474.489 369.594Z"></path>
<path fill="#224229" d="M496.354 309.598C491.014 308.183 485.541 311.36 484.124 316.699C482.816 321.625 481.33 326.566 479.706 331.385C477.942 336.618 480.756 342.291 485.989 344.055C487.048 344.411 488.125 344.581 489.183 344.581C493.358 344.581 497.251 341.946 498.659 337.771C500.422 332.54 502.035 327.176 503.454 321.828C504.871 316.491 501.692 311.015 496.354 309.598Z"></path>
<path fill="#224229" d="M423.74 422.009C420.16 425.626 416.411 429.177 412.597 432.562C408.467 436.229 408.091 442.549 411.757 446.679C413.734 448.905 416.48 450.04 419.239 450.04C421.599 450.04 423.969 449.209 425.874 447.519C430.008 443.849 434.072 439.999 437.954 436.077C441.839 432.152 441.807 425.82 437.881 421.935C433.958 418.051 427.625 418.084 423.74 422.009Z"></path>
<path fill="#224229" d="M375.419 459.602C371.029 462.182 366.501 464.649 361.96 466.935C357.026 469.418 355.041 475.43 357.523 480.363C359.281 483.854 362.805 485.869 366.463 485.869C367.975 485.869 369.509 485.525 370.951 484.799C375.878 482.319 380.791 479.642 385.553 476.843C390.314 474.044 391.906 467.916 389.107 463.155C386.31 458.396 380.184 456.802 375.419 459.602Z"></path>
<path fill="#224229" d="M140.863 462.06C136.421 459.572 131.997 456.902 127.717 454.125C123.083 451.119 116.891 452.439 113.885 457.072C110.879 461.705 112.198 467.898 116.832 470.904C121.475 473.916 126.272 476.812 131.092 479.51C132.638 480.376 134.315 480.787 135.969 480.787C139.471 480.787 142.87 478.944 144.702 475.671C147.401 470.852 145.683 464.759 140.863 462.06Z"></path>
<path fill="#224229" d="M53.4511 116.001C48.7871 113.042 42.6081 114.425 39.6501 119.088C36.6901 123.754 33.8441 128.583 31.1901 133.44C28.5431 138.287 30.3261 144.362 35.1721 147.01C36.6931 147.842 38.3371 148.236 39.9571 148.236C43.4961 148.236 46.9261 146.353 48.7421 143.028C51.1871 138.551 53.8101 134.102 56.5381 129.802C59.4971 125.139 58.1151 118.96 53.4511 116.001Z"></path>
<path fill="#224229" d="M81.09 414.441C77.379 410.349 71.057 410.04 66.964 413.749C62.872 417.458 62.563 423.783 66.273 427.874C69.985 431.969 73.876 435.993 77.839 439.834C79.781 441.717 82.29 442.654 84.798 442.654C87.409 442.654 90.018 441.637 91.979 439.614C95.824 435.648 95.725 429.318 91.759 425.473C88.104 421.931 84.514 418.218 81.09 414.441Z"></path>
<path fill="#224229" d="M197.696 484.745C192.761 483.491 187.804 482.057 182.963 480.483C177.709 478.774 172.067 481.649 170.361 486.901C168.653 492.153 171.527 497.795 176.779 499.503C182.035 501.212 187.415 502.768 192.77 504.129C193.597 504.339 194.424 504.44 195.24 504.44C199.706 504.44 203.775 501.426 204.926 496.9C206.285 491.547 203.049 486.105 197.696 484.745Z"></path>
<path fill="#224229" d="M319.09 483.475C314.186 484.832 309.17 486.045 304.182 487.079C298.775 488.201 295.3 493.494 296.421 498.901C297.4 503.624 301.562 506.872 306.202 506.872C306.876 506.872 307.558 506.804 308.244 506.662C313.656 505.539 319.099 504.224 324.424 502.751C329.746 501.278 332.867 495.769 331.395 490.446C329.922 485.123 324.415 482.005 319.09 483.475Z"></path>
<path fill="#224229" d="M430.273 68.4764C426.23 64.7154 419.901 64.9434 416.14 68.9904C412.379 73.0344 412.609 79.3624 416.654 83.1234C420.383 86.5904 424.05 90.2274 427.551 93.9334C429.518 96.0144 432.166 97.0644 434.821 97.0644C437.286 97.0644 439.756 96.1584 441.688 94.3324C445.702 90.5384 445.88 84.2094 442.086 80.1954C438.29 76.1774 434.315 72.2354 430.273 68.4764Z"></path>
<path fill="#224229" d="M325.069 419.069C326.929 417.209 328 414.629 328 411.999C328 409.369 326.93 406.789 325.069 404.929C323.21 403.069 320.63 401.999 318 401.999C315.37 401.999 312.79 403.069 310.93 404.929C309.07 406.789 308 409.369 308 411.999C308 414.629 309.069 417.209 310.93 419.069C312.791 420.929 315.37 421.999 318 421.999C320.63 421.999 323.21 420.929 325.069 419.069Z"></path>
</svg>
